<mxfile host="app.diagrams.net" agent="Mozilla/5.0 (Windows NT 10.0; Win64; x64) AppleWebKit/537.36 (KHTML, like Gecko) Chrome/134.0.0.0 Safari/537.36 Edg/134.0.0.0" version="26.1.3">
  <diagram name="第 1 页" id="NADVvAgQR8t2dHGBR0uc">
    <mxGraphModel dx="2066" dy="1107" grid="1" gridSize="10" guides="1" tooltips="1" connect="1" arrows="1" fold="1" page="1" pageScale="1" pageWidth="827" pageHeight="1169" math="0" shadow="0">
      <root>
        <mxCell id="0" />
        <mxCell id="1" parent="0" />
        <mxCell id="9SA8shca4YkV5s7Sw7UC-4" style="edgeStyle=orthogonalEdgeStyle;rounded=0;orthogonalLoop=1;jettySize=auto;html=1;entryX=0;entryY=0.5;entryDx=0;entryDy=0;" edge="1" parent="1" source="9SA8shca4YkV5s7Sw7UC-1" target="9SA8shca4YkV5s7Sw7UC-2">
          <mxGeometry relative="1" as="geometry" />
        </mxCell>
        <mxCell id="9SA8shca4YkV5s7Sw7UC-5" style="edgeStyle=orthogonalEdgeStyle;rounded=0;orthogonalLoop=1;jettySize=auto;html=1;exitX=1;exitY=0.5;exitDx=0;exitDy=0;entryX=0;entryY=0.5;entryDx=0;entryDy=0;" edge="1" parent="1" source="9SA8shca4YkV5s7Sw7UC-1" target="9SA8shca4YkV5s7Sw7UC-3">
          <mxGeometry relative="1" as="geometry" />
        </mxCell>
        <mxCell id="9SA8shca4YkV5s7Sw7UC-1" value="&lt;div class=&quot;lake-content&quot;&gt;&lt;strong&gt;基于深度学习的形状补全方法&lt;/strong&gt;&lt;/div&gt;" style="rounded=0;whiteSpace=wrap;html=1;" vertex="1" parent="1">
          <mxGeometry x="70" y="230" width="210" height="40" as="geometry" />
        </mxCell>
        <mxCell id="9SA8shca4YkV5s7Sw7UC-2" value="&lt;div class=&quot;lake-content&quot;&gt;&lt;ul style=&quot;margin: 0; padding-left: 23px&quot; class=&quot;ne-ul&quot;&gt;&lt;li data-lake-index-type=&quot;0&quot; id=&quot;ufd0a2c70&quot;&gt;&lt;strong&gt;基于二维形状描述符的方法&lt;/strong&gt;&lt;/li&gt;&lt;/ul&gt;&lt;/div&gt;" style="rounded=0;whiteSpace=wrap;html=1;" vertex="1" parent="1">
          <mxGeometry x="320" y="140" width="200" height="60" as="geometry" />
        </mxCell>
        <mxCell id="9SA8shca4YkV5s7Sw7UC-9" style="edgeStyle=orthogonalEdgeStyle;rounded=0;orthogonalLoop=1;jettySize=auto;html=1;exitX=1;exitY=0.5;exitDx=0;exitDy=0;entryX=0;entryY=0.5;entryDx=0;entryDy=0;" edge="1" parent="1" source="9SA8shca4YkV5s7Sw7UC-3" target="9SA8shca4YkV5s7Sw7UC-7">
          <mxGeometry relative="1" as="geometry" />
        </mxCell>
        <mxCell id="9SA8shca4YkV5s7Sw7UC-10" style="edgeStyle=orthogonalEdgeStyle;rounded=0;orthogonalLoop=1;jettySize=auto;html=1;exitX=1;exitY=0.5;exitDx=0;exitDy=0;entryX=0;entryY=0.5;entryDx=0;entryDy=0;" edge="1" parent="1" source="9SA8shca4YkV5s7Sw7UC-3" target="9SA8shca4YkV5s7Sw7UC-6">
          <mxGeometry relative="1" as="geometry" />
        </mxCell>
        <mxCell id="9SA8shca4YkV5s7Sw7UC-11" style="edgeStyle=orthogonalEdgeStyle;rounded=0;orthogonalLoop=1;jettySize=auto;html=1;exitX=1;exitY=0.5;exitDx=0;exitDy=0;entryX=0;entryY=0.5;entryDx=0;entryDy=0;" edge="1" parent="1" source="9SA8shca4YkV5s7Sw7UC-3" target="9SA8shca4YkV5s7Sw7UC-8">
          <mxGeometry relative="1" as="geometry" />
        </mxCell>
        <mxCell id="9SA8shca4YkV5s7Sw7UC-3" value="&lt;div class=&quot;lake-content&quot;&gt;&lt;ul style=&quot;margin: 0; padding-left: 23px&quot; class=&quot;ne-ul&quot;&gt;&lt;li data-lake-index-type=&quot;0&quot; id=&quot;u03b984ae&quot;&gt;&lt;strong&gt;基于三维形状描述符的方法&lt;/strong&gt;&lt;/li&gt;&lt;/ul&gt;&lt;/div&gt;" style="rounded=0;whiteSpace=wrap;html=1;" vertex="1" parent="1">
          <mxGeometry x="320" y="310" width="200" height="50" as="geometry" />
        </mxCell>
        <mxCell id="9SA8shca4YkV5s7Sw7UC-6" value="&lt;div class=&quot;lake-content&quot;&gt;&lt;span class=&quot;ne-text&quot;&gt;体素&lt;/span&gt;&lt;/div&gt;" style="rounded=0;whiteSpace=wrap;html=1;" vertex="1" parent="1">
          <mxGeometry x="560" y="230" width="180" height="60" as="geometry" />
        </mxCell>
        <mxCell id="9SA8shca4YkV5s7Sw7UC-7" value="&lt;div class=&quot;lake-content&quot;&gt;&lt;span class=&quot;ne-text&quot;&gt;点云&lt;/span&gt;&lt;/div&gt;" style="rounded=0;whiteSpace=wrap;html=1;" vertex="1" parent="1">
          <mxGeometry x="560" y="305" width="180" height="60" as="geometry" />
        </mxCell>
        <mxCell id="9SA8shca4YkV5s7Sw7UC-8" value="&lt;div class=&quot;lake-content&quot;&gt;&lt;span class=&quot;ne-text&quot;&gt;隐式&lt;/span&gt;&lt;/div&gt;" style="rounded=0;whiteSpace=wrap;html=1;" vertex="1" parent="1">
          <mxGeometry x="560" y="380" width="180" height="60" as="geometry" />
        </mxCell>
      </root>
    </mxGraphModel>
  </diagram>
</mxfile>
